<svg id="Layer_3" data-name="Layer 3" xmlns="http://www.w3.org/2000/svg" xmlns:xlink="http://www.w3.org/1999/xlink" viewBox="0 0 447.53 498.97"><defs><style>.cls-1{fill:url(#radial-gradient);}.cls-2{fill:url(#linear-gradient);}.cls-3{fill:url(#linear-gradient-2);}.cls-4{fill:url(#linear-gradient-3);}.cls-5{fill:#fff;}</style><radialGradient id="radial-gradient" cx="34.41" cy="160.31" r="234.01" gradientTransform="translate(-0.18 -0.01) scale(1.01 1.01)" gradientUnits="userSpaceOnUse"><stop offset="0.17" stop-color="#4674b5"/><stop offset="0.33" stop-color="#4878b5"/><stop offset="0.49" stop-color="#4f84b6"/><stop offset="0.66" stop-color="#5998b6"/><stop offset="0.82" stop-color="#68b4b7"/><stop offset="0.98" stop-color="#7cd8b9"/><stop offset="1" stop-color="#7edcb9"/></radialGradient><linearGradient id="linear-gradient" x1="70.42" y1="139.23" x2="369.4" y2="139.23" gradientUnits="userSpaceOnUse"><stop offset="0" stop-color="#7edcb9"/><stop offset="0.02" stop-color="#7cd8b9"/><stop offset="0.18" stop-color="#68b4b7"/><stop offset="0.34" stop-color="#5998b6"/><stop offset="0.51" stop-color="#4f84b6"/><stop offset="0.67" stop-color="#4878b5"/><stop offset="0.83" stop-color="#4674b5"/></linearGradient><linearGradient id="linear-gradient-2" x1="1406.69" y1="155.8" x2="1620.37" y2="155.8" gradientTransform="translate(1880.21 421.26) rotate(180)" gradientUnits="userSpaceOnUse"><stop offset="0.01" stop-color="#8c0053"/><stop offset="0.14" stop-color="#8f0651"/><stop offset="0.32" stop-color="#99174d"/><stop offset="0.53" stop-color="#a93445"/><stop offset="0.76" stop-color="#bf5b3b"/><stop offset="1" stop-color="#db8d2e"/></linearGradient><linearGradient id="linear-gradient-3" x1="1450.4" y1="59.26" x2="1749.38" y2="59.26" gradientTransform="translate(1880.21 421.26) rotate(180)" gradientUnits="userSpaceOnUse"><stop offset="0" stop-color="#db8d2e"/><stop offset="0.24" stop-color="#bf5b3b"/><stop offset="0.47" stop-color="#a93445"/><stop offset="0.68" stop-color="#99174d"/><stop offset="0.86" stop-color="#8f0651"/><stop offset="0.99" stop-color="#8c0053"/></linearGradient></defs><path class="cls-1" d="M167.84,329.74a42.64,42.64,0,0,0,60.1,0h0a42.15,42.15,0,0,0,0-59.82L99.26,141.8a42.64,42.64,0,0,0-60.1,0h0a42.17,42.17,0,0,0,0,59.83l76.12,75.6Z" transform="translate(-26.35 -1.03)"/><path class="cls-2" d="M227.94,13.62a42.63,42.63,0,0,0-60.1,0L39.16,141.73c-16.25,16.17-17.27,41.49-1.7,58.07l.66.7.85.85c.07.07.12.14.19.2s.14.13.21.2l75.91,75.48c-40.87-40.69,14-105.56,14-105.56h0l98.67-98.22A42.17,42.17,0,0,0,227.94,13.62Z" transform="translate(-26.35 -1.03)"/><path class="cls-3" d="M332.39,171.48a42.64,42.64,0,0,0-60.1,0h0a42.18,42.18,0,0,0,0,59.83L401,359.43a42.64,42.64,0,0,0,60.1,0h0a42.19,42.19,0,0,0,0-59.84L385,224Z" transform="translate(-26.35 -1.03)"/><path class="cls-4" d="M272.29,487.61a42.64,42.64,0,0,0,60.1,0L461.08,359.5c16.25-16.18,17.27-41.49,1.7-58.08l-.66-.7-.86-.85-.18-.2-.22-.19L385,224c40.88,40.69-14,105.56-14,105.56h0l-98.67,98.22A42.18,42.18,0,0,0,272.29,487.61Z" transform="translate(-26.35 -1.03)"/><path class="cls-5" d="M223.8,470.74a41.17,41.17,0,0,1-51.55,26.87h0a40.93,40.93,0,0,1-27-51.32L278.38,29.77A41.17,41.17,0,0,1,329.93,2.91h0a40.94,40.94,0,0,1,27,51.32Z" transform="translate(-26.35 -1.03)"/></svg>